#!OML:ASF H:\Terrain\Patient Classification 1\Takeo\Monday\TakeoMonday.ASF
:FULLY-SPECIFIED
:DEGREES
352
root 9.39035 17.1687 -3.80703 -16.6656 -15.8844 2.01765
lowerback 3.11811 2.80565 3.83006
upperback 2.40142 3.81906 1.21584
thorax 0.889656 1.95016 -0.973515
lowerneck -14.5168 3.69237 -0.961492
upperneck 6.09285 5.29357 -1.94617
head 4.19322 2.46037 -0.0404688
rclavicle 2.09718e-014 -1.74931e-014
rhumerus 72.6836 27.1027 -59.4668
rradius 59.8372
rwrist -18.2133
rhand -47.4079 52.9443
rfingers 7.12502
rthumb -20.0994 23.964
lclavicle 2.09718e-014 -1.74931e-014
lhumerus 70.4135 -6.1206 50.6676
lradius 91.5832
lwrist 30.521
lhand -47.9954 20.2022
lfingers 7.12502
lthumb -20.664 49.1222
rfemur 16.453 -4.38076 20.2326
rtibia 24.6636
rfoot -25.9882 -17.9853
rtoes -1.89441
lfemur -9.09841 0.45188 -18.0634
ltibia 29.8117
lfoot -1.00897 10.2142
ltoes -2.60025
353
root 9.39886 17.1595 -3.81288 -16.5173 -15.8664 1.88453
lowerback 3.10733 2.81248 3.95749
upperback 2.61031 3.82346 1.20229
thorax 1.12071 1.96034 -1.0497
lowerneck -15.0475 3.60237 -0.98393
upperneck 6.09345 5.18968 -1.99431
head 4.27823 2.40086 -0.0500285
rclavicle -3.8266e-014 -1.03368e-014
rhumerus 72.6557 27.1499 -59.2651
rradius 59.78
rwrist -18.3649
rhand -46.8244 47.5553
rfingers 7.12502
rthumb -19.5385 18.517
lclavicle -3.8266e-014 -1.03368e-014
lhumerus 70.4088 -6.1303 50.7921
lradius 91.432
lwrist 30.661
lhand -48.3595 21.0701
lfingers 7.12502
lthumb -21.0138 49.9516
rfemur 16.3635 -4.55597 20.2846
rtibia 24.5872
rfoot -25.9733 -17.8387
rtoes -1.59107
lfemur -9.36812 0.443017 -17.9708
ltibia 30.0135
lfoot -1.09763 10.1745
ltoes -3.31987
354
root 9.41238 17.1597 -3.81321 -16.3253 -15.9167 1.69899
lowerback 3.11579 2.77278 4.19235
upperback 2.70204 3.77241 1.19197
thorax 1.22481 1.94121 -1.1866
lowerneck -15.3497 3.69971 -0.707375
upperneck 6.22796 5.29446 -2.20161
head 4.38165 2.4413 -0.141836
rclavicle 2.69353e-014 -3.4191e-014
rhumerus 72.3719 27.4849 -59.4177
rradius 59.72
rwrist -18.3752
rhand -47.5794 53.0024
rfingers 7.12502
rthumb -20.2642 24.0395
lclavicle 2.69353e-014 -3.4191e-014
lhumerus 70.1616 -6.10487 50.9481
lradius 91.3134
lwrist 31.1583
lhand -48.1621 22.2836
lfingers 7.12502
lthumb -20.8242 51.186
rfemur 16.2235 -4.79421 20.3269
rtibia 24.5686
rfoot -25.8698 -17.6176
rtoes -1.96273
lfemur -9.59825 0.422339 -17.8183
ltibia 30.1608
lfoot -1.27674 10.1208
ltoes -3.98377
355
root 9.42434 17.1655 -3.81127 -16.2484 -15.9677 1.59209
lowerback 3.32243 2.67765 4.26457
upperback 2.69637 3.65851 1.14655
thorax 1.10537 1.88356 -1.2831
lowerneck -15.0424 3.80885 -0.11177
upperneck 6.08828 5.35733 -2.60184
head 4.3175 2.4671 -0.361027
rclavicle 1.19271e-015 -1.94809e-014
rhumerus 72.0066 28.0685 -59.8361
rradius 59.5301
rwrist -18.4927
rhand -47.3441 49.0241
rfingers 7.12502
rthumb -20.0381 20.0374
lclavicle 1.19271e-015 -1.94809e-014
lhumerus 69.5531 -6.11153 50.9055
lradius 91.2767
lwrist 31.625
lhand -48.0627 22.9026
lfingers 7.12502
lthumb -20.7287 51.8155
rfemur 16.1802 -4.95104 20.3132
rtibia 24.5183
rfoot -25.7649 -17.4159
rtoes -2.26373
lfemur -9.6903 0.38481 -17.7395
ltibia 30.2858
lfoot -1.40065 10.1237
ltoes -3.45769
356
root 9.42979 17.1671 -3.81038 -16.177 -16.0261 1.61313
lowerback 3.53746 2.65185 4.11417
upperback 2.70068 3.63209 1.09268
thorax 0.981914 1.86656 -1.26602
lowerneck -14.6801 3.77295 0.0421915
upperneck 5.66881 5.26312 -2.58819
head 4.13241 2.435 -0.400086
rclavicle -2.46493e-014 -2.78299e-015
rhumerus 71.6068 28.5362 -60.3617
rradius 59.1752
rwrist -18.7435
rhand -46.9078 47.697
rfingers 7.12502
rthumb -19.6186 18.6669
lclavicle -2.46493e-014 -2.78299e-015
lhumerus 69.0814 -6.21843 50.8677
lradius 91.0399
lwrist 31.8884
lhand -48.0773 22.1669
lfingers 7.12502
lthumb -20.7427 51.0783
rfemur 16.0972 -4.86139 20.3201
rtibia 24.4387
rfoot -25.6347 -17.4901
rtoes -2.5428
lfemur -9.83951 0.43641 -17.7643
ltibia 30.3998
lfoot -1.40783 10.1508
ltoes -3.02939
357
root 9.43459 17.1668 -3.80976 -16.0032 -16.1469 1.51114
lowerback 3.62181 2.66394 4.11427
upperback 2.75116 3.65046 1.14133
thorax 0.984641 1.87587 -1.21946
lowerneck -14.8151 3.80659 -0.144134
upperneck 5.52645 5.32726 -2.46646
head 4.10203 2.47004 -0.327593
rclavicle -7.65321e-014 3.02153e-014
rhumerus 71.2557 28.925 -60.6744
rradius 58.9033
rwrist -18.8719
rhand -46.869 47.0114
rfingers 7.12502
rthumb -19.5814 17.9775
lclavicle -7.65321e-014 3.02153e-014
lhumerus 68.8457 -6.31378 51.1212
lradius 90.711
lwrist 32.2678
lhand -47.8239 21.8718
lfingers 7.12502
lthumb -20.4992 50.8096
rfemur 15.9673 -4.77451 20.4788
rtibia 24.3517
rfoot -25.5452 -17.5676
rtoes -3.31096
lfemur -10.0608 0.555954 -17.6436
ltibia 30.5203
lfoot -1.39986 10.1239
ltoes -3.25646
358
root 9.44264 17.1702 -3.80957 -15.7992 -16.2689 1.3473
lowerback 3.65623 2.70574 4.26074
upperback 2.8288 3.70843 1.21029
thorax 1.05376 1.90843 -1.23016
lowerneck -15.0831 3.79377 -0.354283
upperneck 5.59932 5.36972 -2.6242
head 4.16695 2.47262 -0.333716
rclavicle -3.47873e-014 6.75868e-015
rhumerus 70.9735 29.2194 -60.6966
rradius 58.6863
rwrist -19.033
rhand -47.0948 46.353
rfingers 7.12502
rthumb -19.7984 17.3414
lclavicle -3.47873e-014 6.75868e-015
lhumerus 68.6944 -6.51418 51.5544
lradius 90.3409
lwrist 32.5234
lhand -47.7334 22.2387
lfingers 7.12502
lthumb -20.4122 51.1859
rfemur 15.81 -4.74962 20.6592
rtibia 24.284
rfoot -25.5746 -17.5353
rtoes -3.62092
lfemur -10.2784 0.618347 -17.4715
ltibia 30.6292
lfoot -1.34625 10.1353
ltoes -3.30684
359
root 9.45383 17.1713 -3.81127 -15.4782 -16.4066 1.01695
lowerback 3.58155 2.74619 4.59908
upperback 2.98971 3.75992 1.25553
thorax 1.28446 1.94535 -1.36181
lowerneck -15.2385 3.64804 -0.485304
upperneck 5.32655 5.20065 -2.70739
head 4.10457 2.38391 -0.3524
rclavicle 4.27387e-014 -3.18055e-015
rhumerus 70.834 29.3745 -60.6314
rradius 58.4643
rwrist -19.2539
rhand -47.1829 45.5919
rfingers 7.12502
rthumb -19.8831 16.589
lclavicle 4.27387e-014 -3.18055e-015
lhumerus 68.5197 -6.61998 51.8297
lradius 90.1338
lwrist 32.6529
lhand -47.7878 22.7772
lfingers 7.12502
lthumb -20.4645 51.7187
rfemur 15.5102 -4.57978 21.0931
rtibia 24.2667
rfoot -25.5012 -17.784
rtoes -3.19427
lfemur -10.616 0.628752 -17.1213
ltibia 30.731
lfoot -1.34093 10.1624
ltoes -3.63902
360
root 9.46644 17.1759 -3.81086 -15.2291 -16.4105 0.948225
lowerback 3.54958 2.73736 4.65448
upperback 3.1166 3.74343 1.16957
thorax 1.4421 1.9439 -1.47379
lowerneck -15.1509 3.64827 -0.359708
upperneck 4.7853 5.15078 -2.6366
head 3.92376 2.37537 -0.362121
rclavicle -1.69464e-014 -2.5842e-014
rhumerus 70.5625 29.6005 -60.7473
rradius 58.3957
rwrist -19.4166
rhand -47.2573 44.7966
rfingers 7.12502
rthumb -19.9546 15.8011
lclavicle -1.69464e-014 -2.5842e-014
lhumerus 68.0604 -6.72032 52.0137
lradius 90.0644
lwrist 32.9265
lhand -47.733 23.001
lfingers 7.12502
lthumb -20.4118 51.9482
rfemur 15.2051 -4.53795 21.1529
rtibia 24.2854
rfoot -25.2649 -18.0572
rtoes -3.7766
lfemur -10.9359 0.557698 -17.0956
ltibia 30.8543
lfoot -1.46149 10.2279
ltoes -3.72089
